<svg width="24" height="24" viewBox="0 0 24 24" fill="none" xmlns="http://www.w3.org/2000/svg">
<path d="M17.3896 15.67L13.3496 12H10.6396L6.59959 15.67C6.05007 16.161 5.66435 16.8087 5.49448 17.5258C5.3246 18.2428 5.37874 18.9947 5.64959 19.68C5.91482 20.3655 6.38187 20.9543 6.98898 21.3685C7.59608 21.7828 8.31463 22.003 9.04959 22H14.9396C16.4596 22 17.7896 21.09 18.3396 19.68C18.8896 18.26 18.5196 16.69 17.3896 15.67ZM13.8196 18.14H10.1796C9.99924 18.14 9.82628 18.0684 9.69876 17.9409C9.57123 17.8133 9.49959 17.6404 9.49959 17.46C9.49959 17.09 9.80959 16.78 10.1796 16.78H13.8196C14.1996 16.78 14.4996 17.09 14.4996 17.46C14.4996 17.83 14.1896 18.14 13.8196 18.14ZM18.3496 4.32003C18.0844 3.63459 17.6173 3.0458 17.0102 2.63154C16.4031 2.21728 15.6846 1.99707 14.9496 2.00003H9.04959C8.31398 1.99725 7.59488 2.21802 6.98755 2.63311C6.38023 3.0482 5.91336 3.63801 5.64878 4.3244C5.3842 5.01079 5.3344 5.76137 5.50598 6.4767C5.67756 7.19203 6.06243 7.83835 6.60959 8.33003L10.6496 12H13.3596L17.3996 8.33003C17.9452 7.83633 18.3281 7.18866 18.4978 6.47266C18.6674 5.75666 18.6157 5.00604 18.3496 4.32003ZM13.8196 7.23003H10.1796C9.99924 7.23003 9.82628 7.15839 9.69876 7.03086C9.57123 6.90334 9.49959 6.73038 9.49959 6.55003C9.49959 6.18003 9.80959 5.87003 10.1796 5.87003H13.8196C14.1996 5.87003 14.4996 6.18003 14.4996 6.55003C14.4996 6.92003 14.1896 7.23003 13.8196 7.23003Z" fill="white"/>
</svg>
