<svg width="24" height="24" viewBox="0 0 24 24" fill="none" xmlns="http://www.w3.org/2000/svg">
<path d="M21.5599 10.7381L20.2099 9.15812C19.9599 8.85812 19.7499 8.29812 19.7499 7.89812V6.19812C19.7499 5.13812 18.8799 4.26813 17.8199 4.26813H16.1199C15.7199 4.26813 15.1499 4.05813 14.8499 3.80813L13.2699 2.45812C12.5799 1.86813 11.4499 1.86813 10.7599 2.45812L9.15988 3.80813C8.85988 4.05813 8.29988 4.26813 7.89988 4.26813H6.16988C5.10988 4.26813 4.23988 5.13812 4.23988 6.19812V7.89812C4.23988 8.28812 4.03988 8.84812 3.78988 9.14812L2.43988 10.7381C1.85988 11.4381 1.85988 12.5581 2.43988 13.2381L3.78988 14.8281C4.03988 15.1181 4.23988 15.6881 4.23988 16.0781V17.7881C4.23988 18.8481 5.10988 19.7181 6.16988 19.7181H7.90988C8.29988 19.7181 8.86988 19.9281 9.16988 20.1781L10.7499 21.5281C11.4399 22.1181 12.5699 22.1181 13.2599 21.5281L14.8399 20.1781C15.1399 19.9281 15.6999 19.7181 16.0999 19.7181H17.7999C18.8599 19.7181 19.7299 18.8481 19.7299 17.7881V16.0881C19.7299 15.6881 19.9399 15.1281 20.1899 14.8281L21.5399 13.2481C22.1499 12.5681 22.1499 11.4381 21.5599 10.7381ZM11.2499 8.12813C11.2499 7.71813 11.5899 7.37812 11.9999 7.37812C12.4099 7.37812 12.7499 7.71813 12.7499 8.12813V12.9581C12.7499 13.3681 12.4099 13.7081 11.9999 13.7081C11.5899 13.7081 11.2499 13.3681 11.2499 12.9581V8.12813ZM11.9999 16.8681C11.4499 16.8681 10.9999 16.4181 10.9999 15.8681C10.9999 15.3181 11.4399 14.8681 11.9999 14.8681C12.5499 14.8681 12.9999 15.3181 12.9999 15.8681C12.9999 16.4181 12.5599 16.8681 11.9999 16.8681Z" fill="white"/>
</svg>