<svg width="224" height="224" viewBox="0 0 224 224" fill="none" xmlns="http://www.w3.org/2000/svg">
<path d="M175 74.6666V94.2666C170.893 93.7066 166.227 93.4266 161 93.3333V74.6666C161 45.2666 152.693 25.6666 112 25.6666C71.3067 25.6666 63 45.2666 63 74.6666V93.3333C57.7733 93.4266 53.1067 93.7066 49 94.2666V74.6666C49 47.6 55.5333 11.6666 112 11.6666C168.467 11.6666 175 47.6 175 74.6666Z" fill="#C81B1B"/>
<path d="M175 94.2667C170.894 93.7067 166.227 93.4267 161 93.3334H63.0003C57.7737 93.4267 53.107 93.7067 49.0003 94.2667C25.2003 97.16 18.667 108.827 18.667 140V158.667C18.667 196 28.0003 205.333 65.3337 205.333H158.667C196 205.333 205.334 196 205.334 158.667V140C205.334 108.827 198.8 97.16 175 94.2667ZM81.2937 155.96C79.5203 157.64 77.0937 158.667 74.667 158.667C73.4537 158.667 72.2403 158.387 71.1203 157.92C69.907 157.453 68.9737 156.8 68.0403 155.96C66.3603 154.187 65.3337 151.76 65.3337 149.333C65.3337 148.12 65.6137 146.907 66.0803 145.787C66.547 144.667 67.2003 143.64 68.0403 142.707C68.9737 141.867 69.907 141.213 71.1203 140.747C74.5737 139.253 78.6803 140.093 81.2937 142.707C82.1337 143.64 82.787 144.667 83.2537 145.787C83.7203 146.907 84.0003 148.12 84.0003 149.333C84.0003 151.76 82.9737 154.187 81.2937 155.96ZM120.587 152.88C120.12 154 119.467 155.027 118.627 155.96C116.854 157.64 114.427 158.667 112 158.667C109.48 158.667 107.147 157.64 105.374 155.96C104.534 155.027 103.88 154 103.414 152.88C102.934 151.758 102.681 150.553 102.667 149.333C102.667 146.813 103.694 144.48 105.374 142.707C108.827 139.253 115.08 139.253 118.627 142.707C120.307 144.48 121.334 146.813 121.334 149.333C121.334 150.547 121.054 151.76 120.587 152.88ZM155.96 155.96C154.187 157.64 151.76 158.667 149.334 158.667C146.907 158.667 144.48 157.64 142.707 155.96C141.027 154.187 140 151.853 140 149.333C140 146.813 141.027 144.48 142.707 142.707C146.254 139.253 152.507 139.253 155.96 142.707C156.334 143.173 156.707 143.64 157.08 144.2C157.454 144.667 157.734 145.227 157.92 145.787C158.2 146.347 158.387 146.907 158.48 147.467C158.574 148.12 158.667 148.773 158.667 149.333C158.667 151.76 157.64 154.187 155.96 155.96Z" fill="#C81B1B"/>
</svg>
