<svg width="64" height="24" viewBox="0 0 64 24" fill="none" xmlns="http://www.w3.org/2000/svg">
<path d="M21.25 9.14969C18.94 5.51969 15.56 3.42969 12 3.42969C10.22 3.42969 8.49 3.94969 6.91 4.91969C5.33 5.89969 3.91 7.32969 2.75 9.14969C1.75 10.7197 1.75 13.2697 2.75 14.8397C5.06 18.4797 8.44 20.5597 12 20.5597C13.78 20.5597 15.51 20.0397 17.09 19.0697C18.67 18.0897 20.09 16.6597 21.25 14.8397C22.25 13.2797 22.25 10.7197 21.25 9.14969ZM12 16.0397C9.76 16.0397 7.96 14.2297 7.96 11.9997C7.96 9.76969 9.76 7.95969 12 7.95969C14.24 7.95969 16.04 9.76969 16.04 11.9997C16.04 14.2297 14.24 16.0397 12 16.0397Z" fill="white"/>
<path d="M11.9976 9.13965C11.2404 9.13965 10.5142 9.44044 9.97879 9.97586C9.44337 10.5113 9.14258 11.2375 9.14258 11.9946C9.14258 12.7518 9.44337 13.478 9.97879 14.0134C10.5142 14.5489 11.2404 14.8496 11.9976 14.8496C13.5676 14.8496 14.8576 13.5696 14.8576 11.9996C14.8576 10.4296 13.5676 9.13965 11.9976 9.13965Z" fill="white"/>
<path d="M52.0002 14.0001C46.9902 14.0001 42.9102 17.3601 42.9102 21.5001C42.9102 21.7801 43.1302 22.0001 43.4102 22.0001H60.5902C60.8702 22.0001 61.0902 21.7801 61.0902 21.5001C61.0902 17.3601 57.0102 14.0001 52.0002 14.0001ZM56.8502 5.79813C56.7302 5.30813 56.5302 4.82813 56.2502 4.38813C56.0602 4.06813 55.8102 3.74813 55.5402 3.46813C54.6685 2.5949 53.5026 2.07791 52.2702 2.01813C50.9102 1.92813 49.5202 2.42813 48.4702 3.46813C47.994 3.9394 47.6183 4.50224 47.3657 5.12268C47.113 5.74312 46.9887 6.40832 47.0002 7.07813C47.0102 8.32813 47.5102 9.57813 48.4602 10.5381C49.1202 11.1981 49.9302 11.6381 50.8002 11.8381C51.2702 11.9581 51.7702 12.0181 52.2702 11.9781C53.4602 11.9281 54.6202 11.4581 55.5302 10.5381C56.1415 9.92978 56.5845 9.17321 56.8159 8.34238C57.0472 7.51155 57.059 6.6349 56.8502 5.79813ZM54.0002 8.99813C53.6402 9.35813 53.0402 9.35813 52.6802 8.99813L51.9902 8.30813L51.3302 8.96813C50.9702 9.32813 50.3702 9.32813 50.0102 8.96813C49.9228 8.88214 49.8532 8.77978 49.8054 8.66689C49.7576 8.554 49.7325 8.43279 49.7316 8.3102C49.7307 8.18761 49.7539 8.06605 49.8 7.95244C49.8461 7.83884 49.9141 7.73543 50.0002 7.64813L50.6602 6.98813L50.0202 6.36813C49.8469 6.18814 49.75 5.94799 49.75 5.69813C49.75 5.44827 49.8469 5.20813 50.0202 5.02813C50.3902 4.66813 50.9802 4.66813 51.3602 5.02813L51.9802 5.66813L52.6502 4.99813C53.0102 4.63813 53.6002 4.63813 53.9702 4.99813C54.3302 5.35813 54.3302 5.95813 53.9702 6.31813L53.3102 6.97813L54.0002 7.67813C54.3602 8.03813 54.3602 8.63813 54.0002 8.99813Z" fill="white"/>
</svg>
