<svg width="72" height="24" viewBox="0 0 72 24" fill="none" xmlns="http://www.w3.org/2000/svg">
<path d="M21.25 9.15018C18.94 5.52017 15.56 3.43018 12 3.43018C10.22 3.43018 8.49 3.95018 6.91 4.92018C5.33 5.90018 3.91 7.33017 2.75 9.15018C1.75 10.7202 1.75 13.2702 2.75 14.8402C5.06 18.4802 8.44 20.5602 12 20.5602C13.78 20.5602 15.51 20.0402 17.09 19.0702C18.67 18.0902 20.09 16.6602 21.25 14.8402C22.25 13.2802 22.25 10.7202 21.25 9.15018ZM12 16.0402C9.76 16.0402 7.96 14.2302 7.96 12.0002C7.96 9.77018 9.76 7.96018 12 7.96018C14.24 7.96018 16.04 9.77018 16.04 12.0002C16.04 14.2302 14.24 16.0402 12 16.0402Z" fill="white"/>
<path d="M11.9981 9.14014C11.2409 9.14014 10.5147 9.44093 9.97928 9.97635C9.44386 10.5118 9.14307 11.2379 9.14307 11.9951C9.14307 12.7523 9.44386 13.4785 9.97928 14.0139C10.5147 14.5493 11.2409 14.8501 11.9981 14.8501C13.5681 14.8501 14.8581 13.5701 14.8581 12.0001C14.8581 10.4301 13.5681 9.14014 11.9981 9.14014Z" fill="white"/>
<path d="M68.5 10.19H65.61C63.24 10.19 61.31 8.26 61.31 5.89V3C61.31 2.45 60.86 2 60.31 2H56.07C52.99 2 50.5 4 50.5 7.57V16.43C50.5 20 52.99 22 56.07 22H63.93C67.01 22 69.5 20 69.5 16.43V11.19C69.5 10.64 69.05 10.19 68.5 10.19ZM60.28 15.78L58.28 17.78C58.21 17.85 58.12 17.91 58.03 17.94C57.9422 17.9803 57.8467 18.0012 57.75 18.0012C57.6533 18.0012 57.5578 17.9803 57.47 17.94C57.3873 17.9054 57.3124 17.8544 57.25 17.79C57.24 17.78 57.23 17.78 57.23 17.77L55.23 15.77C55.0905 15.6289 55.0123 15.4384 55.0123 15.24C55.0123 15.0416 55.0905 14.8511 55.23 14.71C55.52 14.42 56 14.42 56.29 14.71L57 15.44V11.25C57 10.84 57.34 10.5 57.75 10.5C58.16 10.5 58.5 10.84 58.5 11.25V15.44L59.22 14.72C59.51 14.43 59.99 14.43 60.28 14.72C60.57 15.01 60.57 15.49 60.28 15.78Z" fill="white"/>
<path d="M65.4299 8.80999C66.3799 8.81999 67.6999 8.81999 68.8299 8.81999C69.3999 8.81999 69.6999 8.14999 69.2999 7.74999C67.8599 6.29999 65.2799 3.68999 63.7999 2.20999C63.3899 1.79999 62.6799 2.07999 62.6799 2.64999V6.13999C62.6799 7.59999 63.9199 8.80999 65.4299 8.80999Z" fill="white"/>
</svg>
