<svg width="164" height="164" viewBox="0 0 164 164" fill="none" xmlns="http://www.w3.org/2000/svg">
<path d="M64.9167 112.75L112.75 82L64.9167 51.25V112.75ZM82.0001 150.333C72.5473 150.333 63.664 148.538 55.3501 144.949C47.0362 141.359 39.8043 136.491 33.6542 130.346C27.5042 124.196 22.6366 116.964 19.0514 108.65C15.4662 100.336 13.6713 91.4528 13.6667 82C13.6667 72.5472 15.4616 63.6639 19.0514 55.35C22.6412 47.0361 27.5088 39.8042 33.6542 33.6542C39.8043 27.5042 47.0362 22.6366 55.3501 19.0514C63.664 15.4661 72.5473 13.6712 82.0001 13.6667C91.4529 13.6667 100.336 15.4616 108.65 19.0514C116.964 22.6411 124.196 27.5087 130.346 33.6542C136.496 39.8042 141.366 47.0361 144.956 55.35C148.545 63.6639 150.338 72.5472 150.333 82C150.333 91.4528 148.539 100.336 144.949 108.65C141.359 116.964 136.491 124.196 130.346 130.346C124.196 136.496 116.964 141.366 108.65 144.956C100.336 148.545 91.4529 150.338 82.0001 150.333Z" fill="black"/>
</svg>
