<svg width="64" height="64" viewBox="0 0 64 64" fill="none" xmlns="http://www.w3.org/2000/svg">
<path d="M25.3333 44L43.9999 32L25.3333 20V44ZM31.9999 58.6667C28.311 58.6667 24.8444 57.9662 21.5999 56.5653C18.3555 55.1644 15.5333 53.2649 13.1333 50.8667C10.7333 48.4667 8.8337 45.6444 7.43459 42.4C6.03547 39.1555 5.33503 35.6889 5.33325 32C5.33325 28.3111 6.0337 24.8444 7.43459 21.6C8.83547 18.3555 10.735 15.5333 13.1333 13.1333C15.5333 10.7333 18.3555 8.83376 21.5999 7.43465C24.8444 6.03554 28.311 5.33509 31.9999 5.33331C35.6888 5.33331 39.1555 6.03376 42.3999 7.43465C45.6444 8.83554 48.4666 10.7351 50.8666 13.1333C53.2666 15.5333 55.167 18.3555 56.5679 21.6C57.9688 24.8444 58.6684 28.3111 58.6666 32C58.6666 35.6889 57.9661 39.1555 56.5653 42.4C55.1644 45.6444 53.2648 48.4667 50.8666 50.8667C48.4666 53.2667 45.6444 55.1671 42.3999 56.568C39.1555 57.9689 35.6888 58.6684 31.9999 58.6667Z" fill="#F4F4F4"/>
</svg>
