<svg width="24" height="24" viewBox="0 0 24 24" fill="none" xmlns="http://www.w3.org/2000/svg">
<path d="M12 12C13.3261 12 14.5978 11.4732 15.5355 10.5355C16.4732 9.59785 17 8.32608 17 7C17 5.67392 16.4732 4.40215 15.5355 3.46447C14.5978 2.52678 13.3261 2 12 2C10.6739 2 9.40212 2.52678 8.46444 3.46447C7.52676 4.40215 6.99997 5.67392 6.99997 7C6.99997 8.32608 7.52676 9.59785 8.46444 10.5355C9.40212 11.4732 10.6739 12 12 12ZM12 14.5C6.98997 14.5 2.90997 17.86 2.90997 22C2.90997 22.28 3.12997 22.5 3.40997 22.5H20.59C20.87 22.5 21.09 22.28 21.09 22C21.09 17.86 17.01 14.5 12 14.5Z" fill="#E6E6E6"/>
</svg>
