<svg width="24" height="24" viewBox="0 0 24 24" fill="none" xmlns="http://www.w3.org/2000/svg">
<path d="M12 2C6.49 2 2 6.49 2 12C2 17.51 6.49 22 12 22C17.51 22 22 17.51 22 12C22 6.49 17.51 2 12 2ZM16.35 15.57C16.2999 15.6552 16.2334 15.7296 16.1544 15.7889C16.0753 15.8482 15.9852 15.8912 15.8894 15.9154C15.7935 15.9396 15.6939 15.9445 15.5961 15.9299C15.4984 15.9152 15.4045 15.8812 15.32 15.83L12.22 13.98C11.45 13.52 10.88 12.51 10.88 11.62V7.52C10.88 7.11 11.22 6.77 11.63 6.77C12.04 6.77 12.38 7.11 12.38 7.52V11.62C12.38 11.98 12.68 12.51 12.99 12.69L16.09 14.54C16.45 14.75 16.57 15.21 16.35 15.57Z" fill="white"/>
</svg>
