<svg width="40" height="41" viewBox="0 0 40 41" fill="none" xmlns="http://www.w3.org/2000/svg">
<path d="M15 29.3678L29 20.2536L15 11.1395V29.3678ZM20 40.5072C17.2333 40.5072 14.6333 39.9753 12.2 38.9113C9.76667 37.8473 7.65 36.4045 5.85 34.5831C4.05 32.7602 2.62533 30.6167 1.576 28.1525C0.526667 25.6883 0.00133333 23.0554 0 20.2536C0 17.4519 0.525334 14.8189 1.576 12.3547C2.62667 9.89052 4.05133 7.74701 5.85 5.92418C7.65 4.10136 9.76667 2.65863 12.2 1.59599C14.6333 0.533346 17.2333 0.00135024 20 0C22.7667 0 25.3667 0.531995 27.8 1.59599C30.2333 2.65998 32.35 4.10271 34.15 5.92418C35.95 7.74701 37.3753 9.89052 38.426 12.3547C39.4767 14.8189 40.0013 17.4519 40 20.2536C40 23.0554 39.4747 25.6883 38.424 28.1525C37.3733 30.6167 35.9487 32.7602 34.15 34.5831C32.35 36.4059 30.2333 37.8493 27.8 38.9133C25.3667 39.9773 22.7667 40.5086 20 40.5072Z" fill="white"/>
</svg>
