<svg width="24" height="24" viewBox="0 0 24 24" fill="none" xmlns="http://www.w3.org/2000/svg">
<path fill-rule="evenodd" clip-rule="evenodd" d="M22 12C22 17.523 17.523 22 12 22C10.4 22 8.88801 21.624 7.54801 20.956C7.19404 20.7731 6.78542 20.7258 6.39901 20.823L4.17301 21.419C3.95268 21.4778 3.72077 21.4776 3.50054 21.4184C3.28031 21.3593 3.07952 21.2432 2.91833 21.0819C2.75713 20.9206 2.6412 20.7197 2.58217 20.4995C2.52314 20.2792 2.52308 20.0473 2.58201 19.827L3.17701 17.601C3.27379 17.2148 3.22613 16.8065 3.04301 16.453C2.35464 15.0697 1.99756 13.5451 2.00001 12C2.00001 6.477 6.47701 2 12 2C17.523 2 22 6.477 22 12ZM12 7.25C12.1989 7.25 12.3897 7.32902 12.5303 7.46967C12.671 7.61032 12.75 7.80109 12.75 8V8.01C13.839 8.285 14.75 9.143 14.75 10.333C14.75 10.5319 14.671 10.7227 14.5303 10.8633C14.3897 11.004 14.1989 11.083 14 11.083C13.8011 11.083 13.6103 11.004 13.4697 10.8633C13.329 10.7227 13.25 10.5319 13.25 10.333C13.25 9.949 12.824 9.417 12 9.417C11.176 9.417 10.75 9.949 10.75 10.333C10.75 10.717 11.176 11.25 12 11.25C13.385 11.25 14.75 12.21 14.75 13.667C14.75 14.857 13.839 15.716 12.75 15.99V16C12.75 16.1989 12.671 16.3897 12.5303 16.5303C12.3897 16.671 12.1989 16.75 12 16.75C11.8011 16.75 11.6103 16.671 11.4697 16.5303C11.329 16.3897 11.25 16.1989 11.25 16V15.99C10.161 15.716 9.25001 14.857 9.25001 13.667C9.25001 13.4681 9.32903 13.2773 9.46968 13.1367C9.61033 12.996 9.8011 12.917 10 12.917C10.1989 12.917 10.3897 12.996 10.5303 13.1367C10.671 13.2773 10.75 13.4681 10.75 13.667C10.75 14.051 11.176 14.583 12 14.583C12.824 14.583 13.25 14.051 13.25 13.667C13.25 13.283 12.824 12.75 12 12.75C10.615 12.75 9.25001 11.79 9.25001 10.333C9.25001 9.143 10.161 8.285 11.25 8.01V8C11.25 7.80109 11.329 7.61032 11.4697 7.46967C11.6103 7.32902 11.8011 7.25 12 7.25Z" fill="white"/>
</svg>
