<svg width="24" height="24" viewBox="0 0 24 24" fill="none" xmlns="http://www.w3.org/2000/svg">
<path d="M19 9.15V7C19 5.9 18.1 5 17 5H7C5.9 5 5 5.9 5 7V9.16C6.16 9.57 7 10.67 7 11.97V14H17V11.96C17 10.67 17.84 9.56 19 9.15ZM4 10C5.1 10 6 10.9 6 12V15H18V12C18 11.4696 18.2107 10.9609 18.5858 10.5858C18.9609 10.2107 19.4696 10 20 10C20.5304 10 21.0391 10.2107 21.4142 10.5858C21.7893 10.9609 22 11.4696 22 12V17C22 18.1 21.1 19 20 19V21H18V19H6V21H4V19C2.9 19 2 18.1 2 17V12C2 10.9 2.9 10 4 10Z" fill="#C81B1B"/>
</svg>
