<svg width="24" height="24" viewBox="0 0 24 24" fill="none" xmlns="http://www.w3.org/2000/svg">
<path d="M23.0769 24H0.923077C0.418462 24 0 23.5918 0 23.0996C0 22.6074 0.418462 22.1993 0.923077 22.1993H23.0769C23.5815 22.1993 24 22.6074 24 23.0996C24 23.5918 23.5815 24 23.0769 24ZM20.64 1.7693C18.2523 -0.559658 15.9138 -0.619682 13.4646 1.7693L11.9754 3.22189C11.8523 3.34194 11.8031 3.53402 11.8523 3.70209C12.323 5.27759 13.1935 6.71187 14.3831 7.87226C15.5728 9.03265 17.0432 9.88167 18.6585 10.3408C18.7457 10.3687 18.8392 10.3722 18.9283 10.351C19.0175 10.3298 19.0988 10.2847 19.1631 10.2208L20.64 8.76816C21.8585 7.59168 22.4492 6.45121 22.4492 5.29874C22.4615 4.11025 21.8708 2.95778 20.64 1.7693ZM16.4431 11.4309C16.0862 11.2628 15.7415 11.0947 15.4092 10.9026C15.1393 10.7458 14.8765 10.5776 14.6215 10.3984C14.4123 10.2664 14.1662 10.0743 13.9323 9.88222C13.857 9.82866 13.7869 9.76837 13.7231 9.70215C13.3169 9.36601 12.8615 8.93383 12.4554 8.45363C12.4185 8.42962 12.3569 8.34559 12.2708 8.23755C12.1477 8.09349 11.9385 7.85339 11.7538 7.57727C11.5784 7.35149 11.4181 7.1149 11.2738 6.86898C11.0769 6.54485 10.9046 6.22072 10.7323 5.88458C10.7067 5.83082 10.6817 5.7768 10.6572 5.72252C10.4751 5.32275 9.93969 5.2063 9.62339 5.51483L2.57231 12.3924C2.41231 12.5485 2.26462 12.8486 2.22769 13.0527L1.56308 17.6506C1.44 18.4669 1.67385 19.2353 2.19077 19.7515C2.63385 20.1716 3.24923 20.3997 3.91385 20.3997C4.06154 20.3997 4.20923 20.3877 4.35692 20.3637L9.08308 19.7154C9.30462 19.6794 9.61231 19.5354 9.76 19.3793L16.8025 12.5113C17.1225 12.1992 17.0006 11.6649 16.5858 11.4909C16.5382 11.471 16.4906 11.451 16.4431 11.4309Z" fill="white"/>
</svg>
