<svg width="458" height="793" viewBox="0 0 458 793" fill="none" xmlns="http://www.w3.org/2000/svg">
<path fill-rule="evenodd" clip-rule="evenodd" d="M0 40C0 17.9086 17.9086 0 40 0H418C440.091 0 458 17.9086 458 40V317.75C457.807 317.745 457.614 317.74 457.42 317.738C457.28 317.736 457.14 317.735 457 317.735C439.327 317.735 425 332.062 425 349.735C425 367.408 439.327 381.735 457 381.735C457.335 381.735 457.668 381.73 458 381.72V753C458 775.091 440.091 793 418 793H40C17.9086 793 0 775.091 0 753V381.72C17.2104 381.191 31 367.074 31 349.735C31 332.397 17.2104 318.279 0 317.75V40Z" fill="#0B0C0F"/>
</svg>
