<svg width="24" height="24" viewBox="0 0 24 24" fill="none" xmlns="http://www.w3.org/2000/svg">
<path d="M5 9.15V7C5 5.9 5.9 5 7 5H17C18.1 5 19 5.9 19 7V9.16C17.84 9.57 17 10.67 17 11.97V14H7V11.96C7 10.67 6.16 9.56 5 9.15ZM20 10C18.9 10 18 10.9 18 12V15H6V12C6 11.4696 5.78929 10.9609 5.41421 10.5858C5.03914 10.2107 4.53043 10 4 10C3.46957 10 2.96086 10.2107 2.58579 10.5858C2.21071 10.9609 2 11.4696 2 12V17C2 18.1 2.9 19 4 19V21H6V19H18V21H20V19C21.1 19 22 18.1 22 17V12C22 10.9 21.1 10 20 10Z" fill="white"/>
</svg>
