<svg width="24" height="24" viewBox="0 0 24 24" fill="none" xmlns="http://www.w3.org/2000/svg">
<path d="M3.40991 22C3.40991 18.13 7.25991 15 11.9999 15C12.9599 15 13.8899 15.13 14.7599 15.37M11.9999 12C13.326 12 14.5978 11.4732 15.5354 10.5355C16.4731 9.59785 16.9999 8.32608 16.9999 7C16.9999 5.67392 16.4731 4.40215 15.5354 3.46447C14.5978 2.52678 13.326 2 11.9999 2C10.6738 2 9.40206 2.52678 8.46438 3.46447C7.5267 4.40215 6.99991 5.67392 6.99991 7C6.99991 8.32608 7.5267 9.59785 8.46438 10.5355C9.40206 11.4732 10.6738 12 11.9999 12Z" stroke="white" stroke-width="1.5" stroke-linecap="round" stroke-linejoin="round"/>
<path d="M22 18.0001C22 18.7501 21.79 19.46 21.42 20.0601C21.21 20.4201 20.94 20.7401 20.63 21.0001C19.93 21.6301 19.01 22.0001 18 22.0001C17.3106 22.0015 16.6326 21.8233 16.033 21.4832C15.4333 21.143 14.9325 20.6525 14.58 20.0601C14.1993 19.4405 13.9985 18.7272 14 18.0001C14 16.7401 14.58 15.6101 15.5 14.8801C16.088 14.4088 16.7972 14.1132 17.5458 14.0275C18.2945 13.9417 19.0522 14.0692 19.7315 14.3953C20.4108 14.7214 20.9842 15.2328 21.3856 15.8705C21.7869 16.5083 21.9999 17.2465 22 18.0001Z" stroke="white" stroke-width="1.5" stroke-miterlimit="10" stroke-linecap="round" stroke-linejoin="round"/>
<path d="M16.4399 18L17.4299 18.99L19.5599 17.02" stroke="white" stroke-width="1.5" stroke-linecap="round" stroke-linejoin="round"/>
</svg>
