<svg width="24" height="24" viewBox="0 0 24 24" fill="none" xmlns="http://www.w3.org/2000/svg">
<path d="M17.39 15.67L13.35 12H10.64L6.59996 15.67C6.05044 16.161 5.66472 16.8087 5.49484 17.5258C5.32497 18.2428 5.37911 18.9947 5.64996 19.68C5.91519 20.3655 6.38224 20.9543 6.98934 21.3685C7.59644 21.7828 8.31499 22.003 9.04996 22H14.94C16.46 22 17.79 21.09 18.34 19.68C18.89 18.26 18.52 16.69 17.39 15.67ZM13.82 18.14H10.18C9.99961 18.14 9.82665 18.0684 9.69912 17.9409C9.5716 17.8133 9.49996 17.6404 9.49996 17.46C9.49996 17.09 9.80996 16.78 10.18 16.78H13.82C14.2 16.78 14.5 17.09 14.5 17.46C14.5 17.83 14.19 18.14 13.82 18.14ZM18.35 4.32003C18.0847 3.63459 17.6177 3.0458 17.0106 2.63154C16.4035 2.21728 15.6849 1.99707 14.95 2.00003H9.04996C8.31434 1.99725 7.59524 2.21802 6.98792 2.63311C6.3806 3.0482 5.91372 3.63801 5.64914 4.3244C5.38456 5.01079 5.33476 5.76137 5.50635 6.4767C5.67793 7.19203 6.0628 7.83835 6.60996 8.33003L10.65 12H13.36L17.4 8.33003C17.9456 7.83633 18.3285 7.18866 18.4981 6.47266C18.6677 5.75666 18.6161 5.00604 18.35 4.32003ZM13.82 7.23003H10.18C9.99961 7.23003 9.82665 7.15839 9.69912 7.03086C9.5716 6.90334 9.49996 6.73038 9.49996 6.55003C9.49996 6.18003 9.80996 5.87003 10.18 5.87003H13.82C14.2 5.87003 14.5 6.18003 14.5 6.55003C14.5 6.92003 14.19 7.23003 13.82 7.23003Z" fill="white"/>
</svg>
