<svg width="91" height="118" viewBox="0 0 91 118" fill="none" xmlns="http://www.w3.org/2000/svg">
<path fill-rule="evenodd" clip-rule="evenodd" d="M8.58182 0C3.84221 0 0 3.84222 0 8.58183V77.0883C3.41836 77.2342 6.1449 80.0516 6.1449 83.5059C6.1449 86.9602 3.41836 89.7776 0 89.9235V109.183C0 113.923 3.84221 117.765 8.58182 117.765H82.4182C87.1578 117.765 91 113.922 91 109.183V89.9235C90.9076 89.9274 90.8147 89.9294 90.7214 89.9294C87.1738 89.9294 84.2978 87.0535 84.2978 83.5059C84.2978 79.9583 87.1738 77.0824 90.7214 77.0824C90.8147 77.0824 90.9076 77.0844 91 77.0883V8.58182C91 3.84221 87.1578 0 82.4182 0H8.58182ZM45.5 21.4118C49.0476 21.4118 51.9235 18.5359 51.9235 14.9882C51.9235 11.4406 49.0476 8.56471 45.5 8.56471C41.9524 8.56471 39.0765 11.4406 39.0765 14.9882C39.0765 18.5359 41.9524 21.4118 45.5 21.4118Z" fill="#C81B1B"/>
</svg>
