<svg width="18" height="21" viewBox="0 0 18 21" fill="none" xmlns="http://www.w3.org/2000/svg">
<path d="M13.9896 0H4C1.79275 0 0 1.80311 0 4V18.601C0 20.4663 1.33679 21.2539 2.97409 20.3523L8.03109 17.544C8.56995 17.2435 9.44041 17.2435 9.96891 17.544L15.0259 20.3523C16.6632 21.2642 18 20.4767 18 18.601V4C17.9896 1.80311 16.1969 0 13.9896 0ZM11.5855 9.74093H6.40415C5.97927 9.74093 5.62694 9.3886 5.62694 8.96373C5.62694 8.53886 5.97927 8.18653 6.40415 8.18653H11.5855C12.0104 8.18653 12.3627 8.53886 12.3627 8.96373C12.3627 9.3886 12.0104 9.74093 11.5855 9.74093Z" fill="white"/>
</svg>
