<svg width="24" height="24" viewBox="0 0 24 24" fill="none" xmlns="http://www.w3.org/2000/svg">
<path d="M12.89 5.87891H5.11C4.28599 5.88154 3.49648 6.21005 2.91381 6.79272C2.33114 7.37538 2.00264 8.16489 2 8.98891V20.3489C2 21.7989 3.04 22.4189 4.31 21.7089L8.24 19.5189C8.66 19.2889 9.34 19.2889 9.75 19.5189L13.68 21.7089C14.96 22.4089 16 21.7989 16 20.3489V8.98891C16 7.27891 14.6 5.87891 12.89 5.87891Z" fill="white"/>
<path d="M22 5.11V16.47C22 17.92 20.96 18.53 19.69 17.83L17.76 16.75C17.6817 16.7061 17.6164 16.6423 17.5707 16.565C17.5251 16.4877 17.5007 16.3998 17.5 16.31V8.99C17.5 6.45 15.43 4.38 12.89 4.38H8.81996C8.44996 4.38 8.18996 3.99 8.35996 3.67C8.87996 2.68 9.91996 2 11.11 2H18.89C20.6 2 22 3.4 22 5.11Z" fill="white"/>
</svg>
