<svg width="72" height="24" viewBox="0 0 72 24" fill="none" xmlns="http://www.w3.org/2000/svg">
<path d="M21.25 9.14969C18.94 5.51969 15.56 3.42969 12 3.42969C10.22 3.42969 8.49 3.94969 6.91 4.91969C5.33 5.89969 3.91 7.32969 2.75 9.14969C1.75 10.7197 1.75 13.2697 2.75 14.8397C5.06 18.4797 8.44 20.5597 12 20.5597C13.78 20.5597 15.51 20.0397 17.09 19.0697C18.67 18.0897 20.09 16.6597 21.25 14.8397C22.25 13.2797 22.25 10.7197 21.25 9.14969ZM12 16.0397C9.76 16.0397 7.96 14.2297 7.96 11.9997C7.96 9.76969 9.76 7.95969 12 7.95969C14.24 7.95969 16.04 9.76969 16.04 11.9997C16.04 14.2297 14.24 16.0397 12 16.0397Z" fill="white"/>
<path d="M11.9981 9.13965C11.2409 9.13965 10.5147 9.44044 9.97928 9.97586C9.44386 10.5113 9.14307 11.2375 9.14307 11.9946C9.14307 12.7518 9.44386 13.478 9.97928 14.0134C10.5147 14.5489 11.2409 14.8496 11.9981 14.8496C13.5681 14.8496 14.8581 13.5696 14.8581 11.9996C14.8581 10.4296 13.5681 9.13965 11.9981 9.13965Z" fill="white"/>
<path d="M71.0769 24H48.9231C48.4185 24 48 23.5918 48 23.0996C48 22.6074 48.4185 22.1993 48.9231 22.1993H71.0769C71.5815 22.1993 72 22.6074 72 23.0996C72 23.5918 71.5815 24 71.0769 24ZM68.64 1.7693C66.2523 -0.559658 63.9138 -0.619682 61.4646 1.7693L59.9754 3.22189C59.8523 3.34194 59.8031 3.53402 59.8523 3.70209C60.323 5.27759 61.1935 6.71187 62.3831 7.87226C63.5728 9.03265 65.0432 9.88167 66.6585 10.3408C66.7457 10.3687 66.8392 10.3722 66.9283 10.351C67.0175 10.3298 67.0988 10.2847 67.1631 10.2208L68.64 8.76816C69.8585 7.59168 70.4492 6.45121 70.4492 5.29874C70.4615 4.11025 69.8708 2.95778 68.64 1.7693ZM64.4431 11.4309C64.0862 11.2628 63.7415 11.0947 63.4092 10.9026C63.1393 10.7458 62.8765 10.5776 62.6215 10.3984C62.4123 10.2664 62.1662 10.0743 61.9323 9.88222C61.857 9.82866 61.7869 9.76837 61.7231 9.70215C61.3169 9.36601 60.8615 8.93383 60.4554 8.45363C60.4185 8.42962 60.3569 8.34559 60.2708 8.23755C60.1477 8.09349 59.9385 7.85339 59.7538 7.57727C59.5784 7.35149 59.4181 7.1149 59.2738 6.86898C59.0769 6.54485 58.9046 6.22072 58.7323 5.88458C58.7067 5.83082 58.6817 5.7768 58.6572 5.72252C58.4751 5.32275 57.9397 5.2063 57.6234 5.51483L50.5723 12.3924C50.4123 12.5485 50.2646 12.8486 50.2277 13.0527L49.5631 17.6506C49.44 18.4669 49.6738 19.2353 50.1908 19.7515C50.6338 20.1716 51.2492 20.3997 51.9138 20.3997C52.0615 20.3997 52.2092 20.3877 52.3569 20.3637L57.0831 19.7154C57.3046 19.6794 57.6123 19.5354 57.76 19.3793L64.8025 12.5113C65.1225 12.1992 65.0006 11.6649 64.5858 11.4909C64.5382 11.471 64.4906 11.451 64.4431 11.4309Z" fill="white"/>
</svg>
