<svg width="24" height="24" viewBox="0 0 24 24" fill="none" xmlns="http://www.w3.org/2000/svg">
<path d="M12 12C13.3261 12 14.5979 11.4732 15.5356 10.5355C16.4733 9.59785 17 8.32608 17 7C17 5.67392 16.4733 4.40215 15.5356 3.46447C14.5979 2.52678 13.3261 2 12 2C10.674 2 9.40218 2.52678 8.4645 3.46447C7.52682 4.40215 7.00003 5.67392 7.00003 7C7.00003 8.32608 7.52682 9.59785 8.4645 10.5355C9.40218 11.4732 10.674 12 12 12ZM12 14.5C6.99003 14.5 2.91003 17.86 2.91003 22C2.91003 22.28 3.13003 22.5 3.41003 22.5H20.59C20.87 22.5 21.09 22.28 21.09 22C21.09 17.86 17.01 14.5 12 14.5Z" fill="white"/>
</svg>
