<svg width="91" height="118" viewBox="0 0 91 118" fill="none" xmlns="http://www.w3.org/2000/svg">
<path fill-rule="evenodd" clip-rule="evenodd" d="M8.56471 0C3.83455 0 0 3.83456 0 8.56471V77.0825C3.53006 77.103 6.38537 79.971 6.38537 83.5059C6.38537 87.0408 3.53006 89.9088 0 89.9293V109.2C0 113.93 3.83455 117.765 8.5647 117.765H82.4353C87.1655 117.765 91 113.93 91 109.2V89.9287C90.9673 89.9292 90.9345 89.9294 90.9017 89.9294C87.3541 89.9294 84.4782 87.0535 84.4782 83.5059C84.4782 79.9583 87.3541 77.0824 90.9017 77.0824C90.9206 77.0824 90.9394 77.0824 90.9582 77.0826C90.9721 77.0827 90.9861 77.0829 91 77.0831V8.56471C91 3.83455 87.1655 0 82.4353 0H8.56471ZM45.5 21.4118C49.0476 21.4118 51.9235 18.5359 51.9235 14.9882C51.9235 11.4406 49.0476 8.56471 45.5 8.56471C41.9524 8.56471 39.0765 11.4406 39.0765 14.9882C39.0765 18.5359 41.9524 21.4118 45.5 21.4118Z" fill="white"/>
</svg>
