<svg width="136" height="56" viewBox="0 0 136 56" fill="none" xmlns="http://www.w3.org/2000/svg">
<g clip-path="url(#clip0_299_5560)">
<path d="M0 24.3356V29.2601C1.69536 29.2589 3.37431 29.5896 4.94079 30.2332C6.50727 30.8767 7.93052 31.8206 9.12912 33.0107C10.3274 34.2004 11.2777 35.6129 11.9257 37.1673C12.5737 38.7218 12.9067 40.3878 12.9056 42.0701H17.8633C17.8588 37.3686 15.9755 32.8609 12.6265 29.5361C9.27759 26.2113 4.7366 24.341 0 24.3356H0Z" fill="white"/>
<path d="M24.7937 15.4697H16.9368C20.9114 17.9698 24.2792 21.3123 26.7986 25.2571V17.4584C26.7982 16.9308 26.5868 16.425 26.2109 16.0521C25.8349 15.6792 25.3252 15.4697 24.7937 15.4697Z" fill="white"/>
<path d="M4.93657 15.4697H0V19.9035C5.92089 19.9096 11.5975 22.2469 15.7843 26.4025C19.9711 30.5582 22.326 36.1927 22.3323 42.0697H26.7985V37.1697C25.7887 31.7843 23.1596 26.8286 19.2572 22.9551C15.3548 19.0817 10.3622 16.472 4.93657 15.4697Z" fill="white"/>
<path d="M38.9499 18.3983H35.8032V34.1413H38.9499V18.3983Z" fill="white"/>
<path d="M50.5196 25.2184C49.9958 24.7457 49.3826 24.381 48.7157 24.1453C47.283 23.6459 45.7217 23.6459 44.289 24.1453C43.6218 24.3808 43.0083 24.7456 42.4843 25.2184C41.9704 25.6887 41.5599 26.2592 41.2784 26.8942C40.9874 27.587 40.8376 28.3301 40.8376 29.0806C40.8376 29.8312 40.9874 30.5743 41.2784 31.2671C41.5588 31.9039 41.9695 32.476 42.4843 32.9471C43.0074 33.4203 43.6205 33.7849 44.2876 34.0195C45.7201 34.5197 47.2817 34.5197 48.7143 34.0195C49.3815 33.7849 49.9949 33.4203 50.5182 32.9471C51.0329 32.4758 51.4435 31.9038 51.7242 31.2671C52.0151 30.5743 52.1649 29.8312 52.1649 29.0806C52.1649 28.3301 52.0151 27.587 51.7242 26.8942C51.4429 26.2594 51.0329 25.6889 50.5196 25.2184ZM48.3588 30.9346C47.8493 31.3902 47.1878 31.6423 46.502 31.6423C45.8162 31.6423 45.1547 31.3902 44.6451 30.9346C44.2168 30.4098 43.9831 29.755 43.9831 29.0796C43.9831 28.4042 44.2168 27.7494 44.6451 27.2246C45.1547 26.769 45.8162 26.5169 46.502 26.5169C47.1878 26.5169 47.8493 26.769 48.3588 27.2246C48.7871 27.7494 49.0208 28.4042 49.0208 29.0796C49.0208 29.755 48.7871 30.4098 48.3588 30.9346Z" fill="white"/>
<path d="M61.8174 25.3541H61.7779C61.6324 25.1513 61.4634 24.9662 61.2744 24.8025C61.0454 24.6015 60.7919 24.4298 60.5198 24.2915C59.832 23.9412 59.0685 23.7627 58.2955 23.7714C57.6181 23.7596 56.9482 23.9135 56.3448 24.2194C55.7826 24.5084 55.2862 24.9089 54.8864 25.3961C54.4787 25.8983 54.166 26.4696 53.9633 27.0824C53.7478 27.7137 53.6379 28.3758 53.6382 29.0424C53.6302 29.7579 53.7511 30.4691 53.995 31.1424C54.2161 31.7569 54.5606 32.3203 55.0077 32.7986C55.4532 33.2666 55.9938 33.6353 56.5938 33.8801C57.2461 34.144 57.9452 34.2749 58.6495 34.2651C59.1705 34.2562 59.6856 34.154 60.17 33.9634C60.7132 33.7589 61.1838 33.4003 61.5233 32.9323H61.5656V33.9123C61.5774 34.2392 61.5231 34.5651 61.406 34.8708C61.2889 35.1766 61.1113 35.4559 60.8837 35.6924C60.5948 35.9461 60.2572 36.1389 59.8911 36.2592C59.525 36.3795 59.1381 36.4248 58.7539 36.3924C58.1446 36.3992 57.5408 36.2785 56.9817 36.0382C56.4253 35.7915 55.9063 35.4692 55.4393 35.0806L53.6981 37.6601C54.4098 38.2291 55.2418 38.6313 56.1319 38.8368C57.0127 39.0378 57.9136 39.1391 58.8174 39.1385C60.8033 39.1385 62.2821 38.6422 63.2539 37.6496C64.2257 36.657 64.7118 35.2029 64.7123 33.2872V24.0213H61.8209L61.8174 25.3541ZM61.6284 29.9664C61.5042 30.2627 61.3223 30.5318 61.0931 30.7581C60.8598 30.9889 60.5862 31.1758 60.2856 31.3097C59.9736 31.4473 59.6359 31.5183 59.2944 31.5183C58.953 31.5183 58.6153 31.4473 58.3032 31.3097C58.0067 31.1739 57.7367 30.9872 57.5056 30.7581C57.2754 30.5299 57.0928 30.2588 56.9682 29.9604C56.8436 29.6621 56.7795 29.3423 56.7795 29.0193C56.7795 28.6963 56.8436 28.3765 56.9682 28.0782C57.0928 27.7798 57.2754 27.5088 57.5056 27.2805C57.7368 27.0514 58.0068 26.8645 58.3032 26.7282C58.6154 26.5911 58.9531 26.5203 59.2944 26.5203C59.6358 26.5203 59.9734 26.5911 60.2856 26.7282C60.5861 26.8626 60.8596 27.0497 61.0931 27.2805C61.4393 27.6259 61.6748 28.0652 61.7701 28.5431C61.8653 29.021 61.816 29.5162 61.6284 29.9664Z" fill="white"/>
<path d="M76.5329 25.2184C76.0091 24.7457 75.3959 24.381 74.729 24.1453C73.2963 23.6459 71.735 23.6459 70.3023 24.1453C69.6351 24.3808 69.0216 24.7456 68.4976 25.2184C67.9837 25.6887 67.5732 26.2592 67.2917 26.8942C67.0007 27.587 66.851 28.3301 66.851 29.0806C66.851 29.8312 67.0007 30.5743 67.2917 31.2671C67.5721 31.9039 67.9828 32.476 68.4976 32.9471C69.0211 33.4204 69.6347 33.785 70.3023 34.0195C71.7348 34.5197 73.2964 34.5197 74.729 34.0195C75.3963 33.7849 76.0096 33.4203 76.5329 32.9471C77.0478 32.476 77.4584 31.9039 77.7389 31.2671C78.0298 30.5743 78.1796 29.8312 78.1796 29.0806C78.1796 28.3301 78.0298 27.587 77.7389 26.8942C77.4574 26.2592 77.0468 25.6887 76.5329 25.2184ZM74.3721 30.9346C73.8626 31.3902 73.2011 31.6423 72.5153 31.6423C71.8295 31.6423 71.168 31.3902 70.6584 30.9346C70.2301 30.4098 69.9965 29.755 69.9965 29.0796C69.9965 28.4042 70.2301 27.7494 70.6584 27.2246C71.168 26.769 71.8295 26.5169 72.5153 26.5169C73.2011 26.5169 73.8626 26.769 74.3721 27.2246C74.8004 27.7494 75.0341 28.4042 75.0341 29.0796C75.0341 29.755 74.8004 30.4098 74.3721 30.9346Z" fill="white"/>
<path d="M82.3541 24.0907H80.6665V34.1406H82.3541V24.0907Z" fill="white"/>
<path d="M81.5109 18.9373C81.3472 18.9342 81.1847 18.965 81.0338 19.0278C80.8829 19.0906 80.7468 19.184 80.6343 19.302C80.4627 19.4737 80.3461 19.692 80.2993 19.9293C80.2525 20.1667 80.2776 20.4125 80.3713 20.6357C80.465 20.859 80.6232 21.0497 80.8259 21.1839C81.0286 21.318 81.2668 21.3896 81.5105 21.3896C81.7542 21.3896 81.9924 21.318 82.1951 21.1839C82.3978 21.0497 82.556 20.859 82.6497 20.6357C82.7434 20.4125 82.7685 20.1667 82.7217 19.9293C82.6749 19.692 82.5583 19.4737 82.3868 19.302C82.2744 19.1839 82.1385 19.0905 81.9876 19.0277C81.8368 18.9649 81.6744 18.9341 81.5109 18.9373Z" fill="white"/>
<path d="M94.8377 25.3401C94.3629 24.859 93.7919 24.482 93.1613 24.2334C92.4693 23.9626 91.7309 23.8278 90.9871 23.8365C90.2865 23.8285 89.5936 23.9831 88.9639 24.288C88.3436 24.5941 87.7945 25.0254 87.3517 25.5543H87.3066V24.0913H85.6211V39.0377H87.3066V32.3597H87.3496C87.7078 32.9721 88.23 33.4741 88.8581 33.8101C89.5873 34.2153 90.4126 34.4193 91.2481 34.4009C91.9321 34.4051 92.6098 34.2698 93.2389 34.0033C93.8464 33.7475 94.3948 33.3711 94.8504 32.8973C95.313 32.413 95.6768 31.8444 95.9216 31.2229C96.4407 29.8669 96.4407 28.369 95.9216 27.0131C95.6746 26.3901 95.3063 25.8216 94.8377 25.3401ZM94.2425 30.5901C94.0852 31.0276 93.8391 31.4285 93.5194 31.768C93.1998 32.1074 92.8134 32.3781 92.3842 32.5634C91.4351 32.9492 90.3713 32.9492 89.4223 32.5634C88.9924 32.3781 88.6055 32.1072 88.2855 31.7673C87.9654 31.4275 87.7192 31.0261 87.5619 30.588C87.2306 29.6355 87.2306 28.6004 87.5619 27.648C87.7192 27.2098 87.9654 26.8084 88.2855 26.4686C88.6055 26.1288 88.9924 25.8578 89.4223 25.6726C90.3713 25.2867 91.4351 25.2867 92.3842 25.6726C92.814 25.8578 93.201 26.1288 93.521 26.4686C93.841 26.8084 94.0873 27.2098 94.2446 27.648C94.5758 28.6004 94.5758 29.6355 94.2446 30.588L94.2425 30.5901Z" fill="white"/>
<path d="M104.811 29.1192C104.491 28.8811 104.133 28.6963 103.753 28.5718C103.336 28.432 102.909 28.3207 102.477 28.2386C102.152 28.1835 101.831 28.112 101.514 28.0244C101.232 27.9482 100.956 27.8475 100.692 27.7234C100.48 27.6279 100.288 27.4929 100.128 27.3258C99.9909 27.1762 99.9174 26.9802 99.9224 26.7784C99.9191 26.5605 99.9833 26.3469 100.106 26.1666C100.228 25.9884 100.386 25.8382 100.571 25.7263C100.769 25.6075 100.985 25.5205 101.21 25.4687C101.441 25.412 101.678 25.3831 101.915 25.3826C102.368 25.3686 102.815 25.4843 103.202 25.7158C103.553 25.9344 103.845 26.2324 104.057 26.5852L105.463 25.6619C105.152 25.0516 104.646 24.5606 104.024 24.2654C103.397 23.9765 102.714 23.8299 102.023 23.8363C101.555 23.8351 101.089 23.9002 100.639 24.0295C100.208 24.1515 99.7984 24.3405 99.4266 24.5895C99.071 24.8277 98.7751 25.1435 98.5613 25.5128C98.34 25.9059 98.228 26.3505 98.2369 26.8008C98.2193 27.2415 98.32 27.6791 98.5289 28.0685C98.7194 28.3941 98.9853 28.6701 99.3046 28.8735C99.6571 29.0941 100.039 29.2641 100.44 29.3782C100.873 29.507 101.327 29.6215 101.803 29.7219C102.078 29.7793 102.345 29.8437 102.604 29.9151C102.847 29.9798 103.08 30.0773 103.296 30.2049C103.487 30.3172 103.653 30.467 103.783 30.6452C103.913 30.8425 103.977 31.0753 103.967 31.3109C103.975 31.5583 103.907 31.8024 103.772 32.0109C103.638 32.2085 103.46 32.3735 103.253 32.4939C103.029 32.6266 102.784 32.7212 102.528 32.7739C102.269 32.8304 102.004 32.8593 101.738 32.86C101.213 32.8802 100.692 32.7536 100.235 32.4946C99.8145 32.2291 99.4447 31.8921 99.1424 31.4992L97.8025 32.5303C98.2173 33.1696 98.8061 33.6793 99.5007 34.0003C100.213 34.2807 100.974 34.4159 101.74 34.3979C102.238 34.3983 102.736 34.3407 103.221 34.2264C103.682 34.1204 104.122 33.9352 104.519 33.679C104.898 33.4289 105.213 33.0931 105.436 32.699C105.678 32.2517 105.798 31.7491 105.783 31.2416C105.796 30.8052 105.708 30.3716 105.523 29.9753C105.356 29.6392 105.112 29.3462 104.811 29.1192Z" fill="white"/>
<path d="M116.97 31.7571V24.0907H115.283V28.9907C115.288 29.519 115.226 30.0458 115.099 30.5587C114.99 30.9984 114.799 31.4136 114.535 31.7823C114.283 32.1251 113.948 32.3986 113.561 32.5768C113.115 32.7732 112.631 32.8689 112.144 32.8568C111.814 32.8833 111.483 32.8308 111.178 32.7037C110.873 32.5767 110.603 32.3788 110.391 32.1267C109.986 31.5413 109.788 30.8389 109.827 30.1296V24.0907H108.14V30.2969C108.134 30.8595 108.211 31.4199 108.367 31.9608C108.502 32.4404 108.743 32.8843 109.072 33.2607C109.401 33.6288 109.811 33.9163 110.271 34.1007C110.818 34.3129 111.403 34.4152 111.991 34.4017C112.386 34.4049 112.78 34.3504 113.159 34.24C113.502 34.141 113.829 33.9967 114.133 33.8109C114.409 33.6422 114.66 33.4363 114.879 33.1991C115.076 32.9881 115.24 32.7491 115.366 32.49H115.409C115.409 32.777 115.416 33.057 115.431 33.33C115.445 33.603 115.452 33.8751 115.452 34.1462H117.054C117.054 33.8163 117.039 33.4511 117.01 33.0507C116.981 32.6503 116.968 32.2191 116.97 31.7571Z" fill="white"/>
<path d="M135.208 26.2924C135.095 25.8061 134.873 25.3515 134.558 24.9624C134.241 24.586 133.831 24.2968 133.369 24.1224C132.787 23.9139 132.17 23.8156 131.551 23.8326C130.88 23.8035 130.215 23.9797 129.647 24.3373C129.121 24.712 128.679 25.1912 128.35 25.7443C128.263 25.5721 128.151 25.3752 128.014 25.1535C127.861 24.9142 127.667 24.7033 127.441 24.5305C127.163 24.3208 126.853 24.1555 126.524 24.0405C126.081 23.8929 125.616 23.8237 125.149 23.8361C124.754 23.8329 124.361 23.8874 123.982 23.9978C123.639 24.0968 123.311 24.2412 123.008 24.4269C122.732 24.5959 122.481 24.8018 122.261 25.0387C122.065 25.2497 121.901 25.4887 121.775 25.7478H121.731C121.731 25.4608 121.724 25.1822 121.71 24.9078C121.696 24.6334 121.688 24.3639 121.688 24.0916H120.087C120.087 24.4216 120.102 24.7867 120.13 25.1871C120.159 25.5875 120.173 26.0171 120.173 26.4758V34.1415H121.862V29.2457C121.857 28.7172 121.919 28.1902 122.046 27.677C122.154 27.2372 122.346 26.8218 122.611 26.4534C122.861 26.1106 123.196 25.8371 123.584 25.6589C124.03 25.4624 124.514 25.3668 125.001 25.3789C125.29 25.3545 125.58 25.4063 125.842 25.5293C126.105 25.6522 126.329 25.8419 126.494 26.0789C126.856 26.8154 127.013 27.6348 126.948 28.4519V34.1429H128.632V28.3427C128.628 27.9294 128.697 27.5185 128.838 27.1296C128.963 26.7849 129.155 26.4677 129.403 26.1958C129.636 25.9414 129.92 25.7368 130.235 25.5945C130.555 25.451 130.902 25.3777 131.252 25.3796C131.669 25.3646 132.084 25.4454 132.464 25.6155C132.764 25.7592 133.023 25.9733 133.221 26.2392C133.411 26.5025 133.544 26.8021 133.611 27.1191C133.683 27.4508 133.719 27.7892 133.719 28.1285V34.1415H135.403V28.0424C135.409 27.4535 135.344 26.8659 135.208 26.2924Z" fill="white"/>
</g>
<defs>
<clipPath id="clip0_299_5560">
<rect width="135.403" height="56" fill="white"/>
</clipPath>
</defs>
</svg>
