<svg width="44" height="104" viewBox="0 0 44 104" fill="none" xmlns="http://www.w3.org/2000/svg">
<rect width="44" height="44" rx="2" fill="#3D3D3D"/>
<path d="M33.0769 34H10.9231C10.4185 34 10 33.5918 10 33.0996C10 32.6074 10.4185 32.1993 10.9231 32.1993H33.0769C33.5815 32.1993 34 32.6074 34 33.0996C34 33.5918 33.5815 34 33.0769 34ZM30.64 11.7693C28.2523 9.44034 25.9138 9.38032 23.4646 11.7693L21.9754 13.2219C21.8523 13.3419 21.8031 13.534 21.8523 13.7021C22.323 15.2776 23.1935 16.7119 24.3831 17.8723C25.5728 19.0326 27.0432 19.8817 28.6585 20.3408C28.7457 20.3687 28.8392 20.3722 28.9283 20.351C29.0175 20.3298 29.0988 20.2847 29.1631 20.2208L30.64 18.7682C31.8585 17.5917 32.4492 16.4512 32.4492 15.2987C32.4615 14.1103 31.8708 12.9578 30.64 11.7693ZM26.4431 21.4309C26.0862 21.2628 25.7415 21.0947 25.4092 20.9026C25.1393 20.7458 24.8765 20.5776 24.6215 20.3984C24.4123 20.2664 24.1662 20.0743 23.9323 19.8822C23.857 19.8287 23.7869 19.7684 23.7231 19.7021C23.3169 19.366 22.8615 18.9338 22.4554 18.4536C22.4185 18.4296 22.3569 18.3456 22.2708 18.2375C22.1477 18.0935 21.9385 17.8534 21.7538 17.5773C21.5784 17.3515 21.4181 17.1149 21.2738 16.869C21.0769 16.5449 20.9046 16.2207 20.7323 15.8846C20.7067 15.8308 20.6817 15.7768 20.6572 15.7225C20.4751 15.3228 19.9397 15.2063 19.6234 15.5148L12.5723 22.3924C12.4123 22.5485 12.2646 22.8486 12.2277 23.0527L11.5631 27.6506C11.44 28.4669 11.6738 29.2353 12.1908 29.7515C12.6338 30.1716 13.2492 30.3997 13.9138 30.3997C14.0615 30.3997 14.2092 30.3877 14.3569 30.3637L19.0831 29.7154C19.3046 29.6794 19.6123 29.5354 19.76 29.3793L26.8025 22.5113C27.1225 22.1992 27.0006 21.6649 26.5858 21.4909C26.5382 21.471 26.4906 21.451 26.4431 21.4309Z" fill="white"/>
<rect y="60" width="44" height="44" rx="2" fill="#3D3D3D"/>
<path d="M26.82 72H17.18C15.05 72 13.32 73.74 13.32 75.86V89.95C13.32 91.75 14.61 92.51 16.19 91.64L21.07 88.93C21.59 88.64 22.43 88.64 22.94 88.93L27.82 91.64C29.4 92.52 30.69 91.76 30.69 89.95V75.86C30.68 73.74 28.95 72 26.82 72ZM24.5 81.4H22.75V83.21C22.75 83.62 22.41 83.96 22 83.96C21.59 83.96 21.25 83.62 21.25 83.21V81.4H19.5C19.09 81.4 18.75 81.06 18.75 80.65C18.75 80.24 19.09 79.9 19.5 79.9H21.25V78.21C21.25 77.8 21.59 77.46 22 77.46C22.41 77.46 22.75 77.8 22.75 78.21V79.9H24.5C24.91 79.9 25.25 80.24 25.25 80.65C25.25 81.06 24.91 81.4 24.5 81.4Z" fill="white"/>
</svg>
